HIERARCHY
ROOT Hips
{
  OFFSET 56.5127 96.8232 -1.43592
  CHANNELS 6 Xposition Yposition Zposition Zrotation Xrotation Yrotation
  JOINT spine
  {
    OFFSET 0 7.96568 0.458067
    CHANNELS 3 Zrotation Xrotation Yrotation
    JOINT spine1
    {
      OFFSET 0 10.2431 0
      CHANNELS 3 Zrotation Xrotation Yrotation
      JOINT spine2
      {
        OFFSET 0 9.81475 0
        CHANNELS 3 Zrotation Xrotation Yrotation
        JOINT Neck
        {
          OFFSET 0 25.1986 1.20138
          CHANNELS 3 Zrotation Xrotation Yrotation
          JOINT Head
          {
            OFFSET 0 7.61315 0
            CHANNELS 3 Zrotation Xrotation Yrotation
            End Site
            {
              OFFSET 0 18.4281 -6.07733
            }
          }
        }
        JOINT RightShoulder
        {
          OFFSET -4.1327 10.5992 -0.575451
          CHANNELS 3 Zrotation Xrotation Yrotation
          JOINT RightArm
          {
            OFFSET 0 13.9018 0
            CHANNELS 3 Zrotation Xrotation Yrotation
            JOINT RightArmRoll
            {
              OFFSET 0 7.01789 0
              CHANNELS 3 Zrotation Xrotation Yrotation
              JOINT RightForeArm
              {
                OFFSET 0 20.4406 0
                CHANNELS 3 Zrotation Xrotation Yrotation
                JOINT RightForeArmRoll
                {
                  OFFSET 0 7.87515 0
                  CHANNELS 3 Zrotation Xrotation Yrotation
                  JOINT RightHand
                  {
                    OFFSET 0 15.8037 0
                    CHANNELS 3 Zrotation Xrotation Yrotation
                    End Site
                    {
                      OFFSET 0 0 0
                    }
                  }
                }
              }
            }
          }
        }
        JOINT LeftShoulder
        {
          OFFSET 4.1327 10.5992 -0.575451
          CHANNELS 3 Zrotation Xrotation Yrotation
          JOINT LeftArm
          {
            OFFSET 0 13.9018 0
            CHANNELS 3 Zrotation Xrotation Yrotation
            JOINT LeftArmRoll
            {
              OFFSET 0 7.01789 0
              CHANNELS 3 Zrotation Xrotation Yrotation
              JOINT LeftForeArm
              {
                OFFSET 0 20.4406 0
                CHANNELS 3 Zrotation Xrotation Yrotation
                JOINT LeftForeArmRoll
                {
                  OFFSET 0 7.87515 0
                  CHANNELS 3 Zrotation Xrotation Yrotation
                  JOINT LeftHand
                  {
                    OFFSET 0 15.8037 0
                    CHANNELS 3 Zrotation Xrotation Yrotation
                    End Site
                    {
                      OFFSET 0 0 0
                    }
                  }
                }
              }
            }
          }
        }
      }
    }
  }
  JOINT RightUpLeg
  {
    OFFSET -7.06048 -1.2947 -1.0861
    CHANNELS 3 Zrotation Xrotation Yrotation
    JOINT RightUpLegRoll
    {
      OFFSET 0 18.5308 0
      CHANNELS 3 Zrotation Xrotation Yrotation
      JOINT RightLeg
      {
        OFFSET 0 -22.9476 0
        CHANNELS 3 Zrotation Xrotation Yrotation
        JOINT RightLegRoll
        {
          OFFSET 0 23.0226 0
          CHANNELS 3 Zrotation Xrotation Yrotation
          JOINT RightFoot
          {
            OFFSET 0 19.1625 0
            CHANNELS 3 Zrotation Xrotation Yrotation
            JOINT RightToeBase
            {
              OFFSET 0 16.0188 0
              CHANNELS 3 Zrotation Xrotation Yrotation
              End Site
              {
                OFFSET 0.00678979 7.75781 -0.894207
              }
            }
          }
        }
      }
    }
  }
  JOINT LeftUpLeg
  {
    OFFSET 7.06048 -1.2947 -1.0861
    CHANNELS 3 Zrotation Xrotation Yrotation
    JOINT LeftUpLegRoll
    {
      OFFSET 0 18.5309 0
      CHANNELS 3 Zrotation Xrotation Yrotation
      JOINT LeftLeg
      {
        OFFSET 0 22.9475 0
        CHANNELS 3 Zrotation Xrotation Yrotation
        JOINT LeftLegRoll
        {
          OFFSET 0 23.2355 0
          CHANNELS 3 Zrotation Xrotation Yrotation
          JOINT LeftFoot
          {
            OFFSET 0 18.9496 0
            CHANNELS 3 Zrotation Xrotation Yrotation
            JOINT LeftToeBase
            {
              OFFSET 0 16.0188 0
              CHANNELS 3 Zrotation Xrotation Yrotation
              End Site
              {
                OFFSET -0.0304289 7.75782 -0.894206
              }
            }
          }
        }
      }
    }
  }
}
MOTION
Frames: 9
Frame Time: 0.00208333
56.2628 96.8622 -0.839864 0.372984 -5.23402 3.8738 -0.0276068 -0.473666 -0.19191 -0.0720672 3.05592 -0.379489 -0.0675959 4.70098 -0.378625 -5.20053 0.657899 -0.0543242 6.40908 14.4327 -1.08273 69.5607 -3.72819 -3.1251 95.5406 7.36975 -36.7737 2.69013e-006 2.5673e-006 1.18664e-007 -158.676 80.2698 145.328 7.11627e-006 9.58057e-007 -2.99999 8.02889 -4.95154 0.697722 -60.6564 -4.81442 3.10442 -102.515 8.73115 40.4088 -4.37326e-015 3.97569e-016 -0 172.041 78.9545 -158.48 7.38562e-006 -5.9627e-006 2.99999 -8.02889 -4.95142 -0.697667 178.324 -2.37061 2.75544 180 7.01526e-015 178.837 178.087 7.85513 179.654 1.83986e-006 -6.62697e-007 0.132066 -19.3728 68.7895 20.2079 8.13649 25.2327 -3.48773 -176.963 -3.71795 -0.29073 4.54188e-006 -4.6773e-006 -1.17873 -1.68163 -6.04953 0.0662352 -1.84517e-006 -2.56875e-006 -0.0655493 18.6261 67.8678 -19.4315 -8.13649 25.2327 3.48774 
56.2642 96.8107 -0.836233 0.374369 -5.23485 3.86383 -0.0271396 -0.472568 -0.192183 -0.0708109 3.05832 -0.380035 -0.0663322 4.70339 -0.379189 -5.22717 0.694657 -0.0560245 6.42022 14.3343 -1.08501 69.5566 -3.72035 -3.12092 95.5086 7.16765 -36.4961 2.69013e-006 2.5673e-006 1.18664e-007 -158.661 80.3094 145.355 7.11627e-006 9.58057e-007 -2.99999 8.02889 -4.95154 0.697722 -60.6491 -4.82799 3.11208 -102.511 8.50453 40.0904 -7.15625e-015 3.97569e-016 -0 171.996 78.9594 -158.463 7.38562e-006 -5.9627e-006 2.99999 -8.02889 -4.95142 -0.697667 178.319 -2.37108 2.75802 180 7.01526e-015 178.836 178.088 7.85935 179.653 1.83986e-006 -6.62697e-007 0.132175 -19.3733 68.79 20.2081 8.13649 25.2327 -3.48773 -176.968 -3.72433 -0.289527 4.54188e-006 -4.6773e-006 -1.17885 -1.6827 -6.04619 0.0659827 -1.84517e-006 -2.56875e-006 -0.0654787 18.6239 67.8652 -19.4294 -8.13649 25.2327 3.48774 
56.2585 96.8169 -0.833957 0.375761 -5.23538 3.85346 -0.0268883 -0.471485 -0.192577 -0.0697582 3.06061 -0.380764 -0.0652704 4.70568 -0.379933 -5.25518 0.732943 -0.0582942 6.43363 14.2337 -1.08808 69.555 -3.71219 -3.11677 95.4767 6.97229 -36.2135 2.69013e-006 2.5673e-006 1.18664e-007 -158.652 80.3508 145.389 7.11627e-006 9.58057e-007 -2.99999 8.02889 -4.95154 0.697722 -60.6403 -4.84256 3.12023 -102.511 8.28061 39.7639 -2.10712e-014 2.38542e-015 -9.54166e-015 171.956 78.9642 -158.453 7.38562e-006 -5.9627e-006 2.99999 -8.02889 -4.95142 -0.697667 178.314 -2.37066 2.76021 180 7.01526e-015 178.836 178.089 7.86454 179.653 1.83986e-006 -6.62697e-007 0.132298 -19.3741 68.7909 20.2087 8.13649 25.2327 -3.48773 -176.972 -3.73184 -0.288584 4.54188e-006 -4.6773e-006 -1.17897 -1.68411 -6.04033 0.0657158 -1.84517e-006 -2.56875e-006 -0.0653871 18.6205 67.8611 -19.4261 -8.13649 25.2327 3.48774 
56.2682 96.814 -0.824619 0.377174 -5.23568 3.84275 -0.0268153 -0.470417 -0.193076 -0.0688651 3.0628 -0.381657 -0.0643666 4.70787 -0.380838 -5.28429 0.77251 -0.0609603 6.44879 14.1314 -1.09173 69.5552 -3.70381 -3.11264 95.4454 6.78355 -35.9263 2.69013e-006 2.5673e-006 1.18664e-007 -158.647 80.3939 145.431 7.11627e-006 9.58057e-007 -2.99999 8.02889 -4.95154 0.697722 -60.63 -4.858 3.12881 -102.515 8.0598 39.43 8.94531e-015 -1.07344e-014 -0 171.921 78.969 -158.449 7.38562e-006 -5.9627e-006 2.99999 -8.02889 -4.95142 -0.697667 178.31 -2.36948 2.76209 180 7.01526e-015 178.836 178.09 7.87054 179.652 1.83986e-006 -6.62697e-007 0.132434 -19.3752 68.792 20.2096 8.13649 25.2327 -3.48773 -176.976 -3.7403 -0.287827 4.54188e-006 -4.6773e-006 -1.17909 -1.68578 -6.03232 0.0654392 -1.84517e-006 -2.56875e-006 -0.0652769 18.616 67.8558 -19.4217 -8.13649 25.2327 3.48774 
56.2521 96.802 -0.822537 0.378622 -5.2358 3.83178 -0.0268828 -0.469361 -0.193668 -0.0680879 3.06491 -0.382696 -0.063577 4.70997 -0.381886 -5.31425 0.81311 -0.0638497 6.46518 14.0283 -1.09578 69.557 -3.69528 -3.10854 95.4151 6.60134 -35.6347 2.69013e-006 2.5673e-006 1.18664e-007 -158.648 80.4384 145.479 7.11627e-006 9.58057e-007 -2.99999 8.02889 -4.95154 0.697722 -60.6186 -4.87418 3.13776 -102.523 7.84254 39.0891 -1.09332e-014 3.18055e-015 6.36111e-015 171.89 78.9743 -158.453 7.38562e-006 -5.9627e-006 2.99999 -8.02889 -4.95142 -0.697667 178.305 -2.36766 2.76371 180 7.01526e-015 178.836 178.092 7.87728 179.651 1.83986e-006 -6.62697e-007 0.132582 -19.3766 68.7935 20.2107 8.13649 25.2327 -3.48773 -176.98 -3.74957 -0.287184 4.54188e-006 -4.6773e-006 -1.17921 -1.68764 -6.02253 0.0651579 -1.84517e-006 -2.56875e-006 -0.0651502 18.6108 67.8494 -19.4164 -8.13649 25.2327 3.48774 
56.2628 96.8078 -0.8212 0.380119 -5.23582 3.82061 -0.0270531 -0.468318 -0.19434 -0.0673825 3.06694 -0.38386 -0.062858 4.712 -0.383058 -5.3448 0.854496 -0.0667892 6.48229 13.925 -1.10002 69.5597 -3.68671 -3.10451 95.3862 6.42555 -35.3391 2.69013e-006 2.5673e-006 1.18664e-007 -158.654 80.4842 145.535 7.11627e-006 9.58057e-007 -2.99999 8.02889 -4.95154 0.697722 -60.6062 -4.89097 3.14703 -102.534 7.62929 38.7421 -5.1684e-015 -3.18055e-015 3.18055e-015 171.864 78.9803 -158.464 7.38562e-006 -5.9627e-006 2.99999 -8.02889 -4.95142 -0.697667 178.301 -2.36531 2.76513 180 7.01526e-015 178.836 178.094 7.88461 179.651 1.83986e-006 -6.62697e-007 0.13274 -19.3782 68.7952 20.212 8.13649 25.2327 -3.48773 -176.984 -3.75949 -0.28658 4.54188e-006 -4.6773e-006 -1.17933 -1.68963 -6.01133 0.064877 -1.84517e-006 -2.56875e-006 -0.0650094 18.6049 67.8423 -19.4104 -8.13649 25.2327 3.48774 
56.2774 96.7972 -0.813563 0.381679 -5.23578 3.80931 -0.0272883 -0.467285 -0.195078 -0.0667051 3.06891 -0.385131 -0.0621657 4.71398 -0.384336 -5.37568 0.896421 -0.0696059 6.4996 13.8221 -1.10425 69.563 -3.6782 -3.10053 95.3592 6.25607 -35.0397 2.69013e-006 2.5673e-006 1.18664e-007 -158.665 80.5311 145.598 7.11627e-006 9.58057e-007 -2.99999 8.02889 -4.95154 0.697722 -60.5932 -4.90825 3.15655 -102.549 7.42055 38.3894 8.74653e-015 -1.63003e-014 6.36111e-015 171.843 78.9874 -158.481 7.38562e-006 -5.9627e-006 2.99999 -8.02889 -4.95142 -0.697667 178.296 -2.36257 2.76643 180 7.01526e-015 178.836 178.096 7.89245 179.65 1.83986e-006 -6.62697e-007 0.132905 -19.3799 68.7971 20.2136 8.13649 25.2327 -3.48773 -176.989 -3.76989 -0.285942 4.54188e-006 -4.6773e-006 -1.17945 -1.69167 -5.99907 0.0646014 -1.84517e-006 -2.56875e-006 -0.0648567 18.5984 67.8346 -19.4039 -8.13649 25.2327 3.48774 
56.2615 96.8208 -0.81358 0.383316 -5.23574 3.79795 -0.0275508 -0.466263 -0.195868 -0.0660117 3.07084 -0.386488 -0.0614563 4.7159 -0.3857 -5.40664 0.938635 -0.0721266 6.5166 13.7204 -1.10828 69.5662 -3.66984 -3.09663 95.3343 6.09282 -34.7369 2.69013e-006 2.5673e-006 1.18664e-007 -158.682 80.5788 145.668 7.11627e-006 9.58057e-007 -2.99999 8.02889 -4.95154 0.697722 -60.5798 -4.9259 3.16627 -102.567 7.21683 38.0316 5.56597e-015 -9.93923e-015 3.18055e-015 171.826 78.9958 -158.506 7.38562e-006 -5.9627e-006 2.99999 -8.02889 -4.95142 -0.697667 178.292 -2.35954 2.76766 180 7.01526e-015 178.836 178.098 7.90063 179.649 1.83986e-006 -6.62697e-007 0.133075 -19.3818 68.7991 20.2152 8.13649 25.2327 -3.48773 -176.993 -3.78063 -0.285197 4.54188e-006 -4.6773e-006 -1.17957 -1.69369 -5.98614 0.064336 -1.84517e-006 -2.56875e-006 -0.0646945 18.5917 67.8265 -19.3971 -8.13649 25.2327 3.48774 
56.2621 96.8091 -0.808199 0.385044 -5.23578 3.78658 -0.0278028 -0.46525 -0.196697 -0.0652584 3.07273 -0.387912 -0.0606862 4.7178 -0.387133 -5.43743 0.980893 -0.0741783 6.53278 13.6205 -1.1119 69.569 -3.66172 -3.09281 95.312 5.93571 -34.431 2.69013e-006 2.5673e-006 1.18664e-007 -158.703 80.6272 145.744 7.11627e-006 9.58057e-007 -2.99999 8.02889 -4.95154 0.697722 -60.5662 -4.94379 3.17611 -102.588 7.01867 37.6694 -7.95139e-016 -9.93923e-015 -3.18055e-015 171.813 79.0059 -158.538 7.38562e-006 -5.9627e-006 2.99999 -8.02889 -4.95142 -0.697667 178.287 -2.35636 2.76888 180 7.01526e-015 178.836 178.1 7.90909 179.648 1.83986e-006 -6.62697e-007 0.13325 -19.3838 68.8013 20.217 8.13649 25.2327 -3.48773 -176.998 -3.79155 -0.284271 4.54188e-006 -4.6773e-006 -1.17968 -1.69562 -5.9729 0.0640858 -1.84517e-006 -2.56875e-006 -0.064525 18.5848 67.8182 -19.3901 -8.13649 25.2327 3.48774 
